<svg xmlns="http://www.w3.org/2000/svg" viewBox="0 0 512 512" role="img" aria-label="Ya Spa">
  <defs>
    <linearGradient id="icBg" x1="0" y1="0" x2="1" y2="1"><stop offset="0" stop-color="#F9F5EC"/><stop offset="1" stop-color="#F1EAD8"/></linearGradient>
    <linearGradient id="icArch" x1="0" y1="0" x2="0" y2="1"><stop offset="0" stop-color="#2E4B34"/><stop offset="1" stop-color="#213827"/></linearGradient>
    <linearGradient id="icPetal" x1="0" y1="0" x2="0" y2="1"><stop offset="0" stop-color="#8FB755"/><stop offset="1" stop-color="#7BA23F"/></linearGradient>
  </defs>
  <rect width="512" height="512" rx="116" fill="url(#icBg)"/>
  <path d="M146,395 L146,206 Q146,96 256,96 Q366,96 366,206 L366,395 Q366,430 331,430 L181,430 Q146,430 146,395 Z" fill="url(#icArch)"/>
  <path d="M146,395 L146,206 Q146,96 256,96 Q366,96 366,206 L366,395 Q366,430 331,430 L181,430 Q146,430 146,395 Z" fill="none" stroke="#C9A15E" stroke-width="3" stroke-opacity="0.9"/>
  <g fill="url(#icPetal)">
    <g transform="rotate(-90 256 250)"><ellipse cx="256" cy="208" rx="21" ry="40"/></g>
    <g transform="rotate(-18 256 250)"><ellipse cx="256" cy="208" rx="21" ry="40"/></g>
    <g transform="rotate(54 256 250)"><ellipse cx="256" cy="208" rx="21" ry="40"/></g>
    <g transform="rotate(126 256 250)"><ellipse cx="256" cy="208" rx="21" ry="40"/></g>
    <g transform="rotate(198 256 250)"><ellipse cx="256" cy="208" rx="21" ry="40"/></g>
  </g>
  <circle cx="256" cy="250" r="15" fill="#C9A15E"/>
</svg>
