<svg xmlns="http://www.w3.org/2000/svg" viewBox="0 0 1200 630">
  <defs>
    <linearGradient id="ogBg" x1="0" y1="0" x2="1" y2="1"><stop offset="0" stop-color="#F9F5EC"/><stop offset="1" stop-color="#EFE7D2"/></linearGradient>
    <linearGradient id="ogMid" x1="0" y1="0" x2="0" y2="1"><stop offset="0" stop-color="#8FB755"/><stop offset="1" stop-color="#7BA23F"/></linearGradient>
    <linearGradient id="ogCtr" x1="0" y1="0" x2="0" y2="1"><stop offset="0" stop-color="#7BA23F"/><stop offset="1" stop-color="#5E8A34"/></linearGradient>
  </defs>
  <rect width="1200" height="630" fill="url(#ogBg)"/>
  <g transform="translate(150 150) scale(2.1)">
    <path d="M60 100 C 36 74 40 40 60 16 C 80 40 84 74 60 100 Z" transform="rotate(-54 60 100)" fill="#B7CE8E"/>
    <path d="M60 100 C 36 74 40 40 60 16 C 80 40 84 74 60 100 Z" transform="rotate(54 60 100)" fill="#B7CE8E"/>
    <path d="M60 100 C 38 76 42 42 60 18 C 78 42 82 76 60 100 Z" transform="rotate(-27 60 100)" fill="url(#ogMid)"/>
    <path d="M60 100 C 38 76 42 42 60 18 C 78 42 82 76 60 100 Z" transform="rotate(27 60 100)" fill="url(#ogMid)"/>
    <path d="M60 102 C 40 78 44 40 60 14 C 76 40 80 78 60 102 Z" fill="url(#ogCtr)"/>
    <circle cx="60" cy="58" r="7" fill="#C9A15E"/>
  </g>
  <text x="360" y="290" font-family="Georgia, 'Times New Roman', serif" font-size="104" font-weight="700" fill="#2E4B34">Ya Spa</text>
  <rect x="362" y="322" width="150" height="3" fill="#C9A15E"/>
  <text x="362" y="372" font-family="Helvetica, Arial, sans-serif" font-size="34" letter-spacing="2" fill="#5B6B54">At-home spa &amp; massage</text>
  <text x="362" y="420" font-family="Helvetica, Arial, sans-serif" font-size="30" letter-spacing="6" fill="#A98545">JEDDAH · BY WOMEN, FOR WOMEN</text>
</svg>
