<svg xmlns="http://www.w3.org/2000/svg" viewBox="0 0 1200 630">
  <defs>
    <linearGradient id="ogBg" x1="0" y1="0" x2="1" y2="1"><stop offset="0" stop-color="#FBF3F0"/><stop offset="1" stop-color="#F1D8DF"/></linearGradient>
    <linearGradient id="ogArch" x1="0" y1="0" x2="0" y2="1"><stop offset="0" stop-color="#7C2233"/><stop offset="1" stop-color="#561522"/></linearGradient>
  </defs>
  <rect width="1200" height="630" fill="url(#ogBg)"/>
  <!-- mark -->
  <g transform="translate(150 165) scale(1.5)">
    <path d="M30,92 L30,50 Q30,20 60,20 Q90,20 90,50 L90,92 Q90,100 82,100 L38,100 Q30,100 30,92 Z" fill="url(#ogArch)"/>
    <path d="M30,92 L30,50 Q30,20 60,20 Q90,20 90,50 L90,92 Q90,100 82,100 L38,100 Q30,100 30,92 Z" fill="none" stroke="#C9A15E" stroke-width="1.4"/>
    <g fill="#FBF3EE"><g transform="rotate(-90 60 58)"><ellipse cx="60" cy="47" rx="5.4" ry="10"/></g><g transform="rotate(-18 60 58)"><ellipse cx="60" cy="47" rx="5.4" ry="10"/></g><g transform="rotate(54 60 58)"><ellipse cx="60" cy="47" rx="5.4" ry="10"/></g><g transform="rotate(126 60 58)"><ellipse cx="60" cy="47" rx="5.4" ry="10"/></g><g transform="rotate(198 60 58)"><ellipse cx="60" cy="47" rx="5.4" ry="10"/></g></g>
    <circle cx="60" cy="58" r="4" fill="#C9A15E"/>
  </g>
  <text x="360" y="290" font-family="Georgia, 'Times New Roman', serif" font-size="104" font-weight="700" fill="#6E1E2E">Ya Spa</text>
  <rect x="362" y="322" width="150" height="3" fill="#C9A15E"/>
  <text x="362" y="372" font-family="Helvetica, Arial, sans-serif" font-size="34" letter-spacing="2" fill="#6B5F58">At-home spa &amp; massage</text>
  <text x="362" y="420" font-family="Helvetica, Arial, sans-serif" font-size="30" letter-spacing="6" fill="#A98545">JEDDAH · WOMEN ONLY</text>
</svg>
