<svg xmlns="http://www.w3.org/2000/svg" viewBox="0 0 1200 630">
  <defs>
    <linearGradient id="ogBg" x1="0" y1="0" x2="1" y2="1"><stop offset="0" stop-color="#F9F5EC"/><stop offset="1" stop-color="#EFE7D2"/></linearGradient>
    <linearGradient id="ogPetal" x1="0" y1="0" x2="0" y2="1"><stop offset="0" stop-color="#8FB755"/><stop offset="1" stop-color="#7BA23F"/></linearGradient>
  </defs>
  <rect width="1200" height="630" fill="url(#ogBg)"/>
  <g transform="translate(232 250) scale(2.0) translate(-60 -58)">
    <g fill="url(#ogPetal)">
      <g transform="rotate(-90 60 58)"><ellipse cx="60" cy="47" rx="5.4" ry="10"/></g>
      <g transform="rotate(-18 60 58)"><ellipse cx="60" cy="47" rx="5.4" ry="10"/></g>
      <g transform="rotate(54 60 58)"><ellipse cx="60" cy="47" rx="5.4" ry="10"/></g>
      <g transform="rotate(126 60 58)"><ellipse cx="60" cy="47" rx="5.4" ry="10"/></g>
      <g transform="rotate(198 60 58)"><ellipse cx="60" cy="47" rx="5.4" ry="10"/></g>
    </g>
    <circle cx="60" cy="58" r="4" fill="#C9A15E"/>
  </g>
  <text x="360" y="290" font-family="Georgia, 'Times New Roman', serif" font-size="104" font-weight="700" fill="#2E4B34">Ya Spa</text>
  <rect x="362" y="322" width="150" height="3" fill="#C9A15E"/>
  <text x="362" y="372" font-family="Helvetica, Arial, sans-serif" font-size="34" letter-spacing="2" fill="#5B6B54">At-home spa &amp; massage</text>
  <text x="362" y="420" font-family="Helvetica, Arial, sans-serif" font-size="30" letter-spacing="6" fill="#A98545">JEDDAH · BY WOMEN, FOR WOMEN</text>
</svg>
