<svg xmlns="http://www.w3.org/2000/svg" viewBox="0 0 1200 630">
  <defs>
    <linearGradient id="ogBg" x1="0" y1="0" x2="1" y2="1"><stop offset="0" stop-color="#F9F5EC"/><stop offset="1" stop-color="#EFE7D2"/></linearGradient>
    <linearGradient id="ogPetal" x1="0" y1="0" x2="0" y2="1"><stop offset="0" stop-color="#8FB755"/><stop offset="1" stop-color="#7BA23F"/></linearGradient>
  </defs>
  <rect width="1200" height="630" fill="url(#ogBg)"/>
  <g transform="translate(155 175) scale(1.9)">
    <g fill="url(#ogPetal)">
      <g transform="rotate(0 60 60)"><ellipse cx="60" cy="35" rx="11" ry="25"/></g>
      <g transform="rotate(72 60 60)"><ellipse cx="60" cy="35" rx="11" ry="25"/></g>
      <g transform="rotate(144 60 60)"><ellipse cx="60" cy="35" rx="11" ry="25"/></g>
      <g transform="rotate(216 60 60)"><ellipse cx="60" cy="35" rx="11" ry="25"/></g>
      <g transform="rotate(288 60 60)"><ellipse cx="60" cy="35" rx="11" ry="25"/></g>
    </g>
    <circle cx="60" cy="60" r="10" fill="#C9A15E"/>
  </g>
  <text x="330" y="290" font-family="Georgia, 'Times New Roman', serif" font-size="104" font-weight="700" fill="#2E4B34">Ya Spa</text>
  <rect x="332" y="322" width="150" height="3" fill="#C9A15E"/>
  <text x="332" y="372" font-family="Helvetica, Arial, sans-serif" font-size="34" letter-spacing="2" fill="#5B6B54">At-home spa &amp; massage</text>
  <text x="332" y="420" font-family="Helvetica, Arial, sans-serif" font-size="30" letter-spacing="6" fill="#A98545">JEDDAH · BY WOMEN, FOR WOMEN</text>
</svg>
